<?xml version="1.0" standalone="no"?>
<!DOCTYPE svg PUBLIC "-//W3C//DTD SVG 1.1//EN" "http://www.w3.org/Graphics/SVG/1.1/DTD/svg11.dtd" >
<svg xmlns="http://www.w3.org/2000/svg">
<metadata>
Created by FontPrep 20130207 at Mon Jan 23 19:14:56 2017
 By dan
</metadata>
<defs>
<font id="0c82142ffadd4fd2a93265d365cec055" horiz-adv-x='1024' >
  <font-face 
    font-family="Harrington"
    font-weight="400"
    font-stretch="normal"
    units-per-em="2048"
    panose-1="0 0 0 0 0 0 0 0 0 0"
    ascent="1638"
    descent="-410"
    x-height="964"
    cap-height="1392"
    bbox="-215 -442 1581 1540"
    underline-thickness="9"
    underline-position="-56"
    unicode-range="U+0020-007A"
  />
<missing-glyph horiz-adv-x="1024" 
d="M123 1323v-1282h778v1282h-778zM82 1364h860v-1364h-860v1364z" />
    <glyph glyph-name=".notdef" horiz-adv-x="1024" 
d="M123 1323v-1282h778v1282h-778zM82 1364h860v-1364h-860v1364z" />
    <glyph glyph-name="glyph1" horiz-adv-x="0" 
 />
    <glyph glyph-name="glyph2" horiz-adv-x="540" 
 />
    <glyph glyph-name="space" unicode=" " horiz-adv-x="540" 
 />
    <glyph glyph-name="space" unicode="&#xa0;" horiz-adv-x="540" 
 />
    <glyph glyph-name="exclam" unicode="!" horiz-adv-x="420" 
d="M88 -70q0 54 43 93t91 39t87 -38t39 -89t-37 -86t-94 -35q-129 0 -129 116zM232 1444v-926q49 -81 116 -118q-26 -2 -90 -2l-156 2l-2 202l4 547q0 201 -12 225t-70 70h210z" />
    <glyph glyph-name="numbersign" unicode="#" horiz-adv-x="1669" 
d="M1333 -254l17 -10l-28 -64t-28 -65q-18 20 -37 38.5t-37 38.5q-33 -41 -65 -77q-28 69 -51 123q2 -2 10 -14t20.5 -31t24.5 -39q13 20 26 39t25 39q20 -18 39 -36t39 -36q23 46 45 94zM852 -264q132 26 146 28q2 -3 3 -6t3 -6q-28 -7 -56.5 -14t-56.5 -14
q30 -24 61.5 -47t61.5 -47l-166 -34q-2 6 -3 12t-3 11q30 6 59 11.5t57 11.5q-26 24 -53 47t-53 47zM1276 782q38 0 59 6l7 -82q-98 0 -170 -82q26 -49 64 -122.5t133.5 -257.5t141 -270.5t70.5 -135.5l-61 -32q-34 77 -95.5 213.5l-123 273t-95.5 213.5l54 -594h-42
q-9 67 -36.5 278.5t-45.5 331.5q-44 -80 -120.5 -221l-153 -282t-120.5 -221q-40 20 -56 20l444 766l-96 32q-5 58 -10.5 117t-9.5 117q35 0 116 24q17 -92 146 -92zM584 181q0 31 -10 49t-46 38q-34 -120 -57 -198q8 2 58.5 29t56.5 32q-2 19 -2 50zM498 -70q0 -9 36 -63
l-44 -25q-50 42 -50 72q8 2 20.5 21t12.5 51t-4 67q-80 -91 -80 -111t13 -37t26 -36l-96 23q0 108 15 130.5t47 39.5t32 55t-5.5 47t-26 28.5t-20.5 69.5t9 102q0 52 -21.5 141.5t-21.5 139.5q0 16 -57 20t-94 25.5t-37 99.5q0 38 13 92t13 79t-9 38t-9 31t10 56h65
q35 -58 35 -98t-17.5 -58t-29.5 -23q-10 -19 -17.5 -26t-7.5 -9l12 -53q18 -98 64 -98q14 0 36 9.5t29.5 9.5t14.5 -11q4 -12 58 -36.5t63 -24.5q-19 56 -19 96t25 53q33 13 54 13t30 -14t9 -26t-3 -51t-3 -71l115 26q13 0 59 -4q4 15 9 29.5t9 30.5q-24 2 -49 4t-49 4
q34 31 65 40t78 9q-5 0 -5 -7q0 -19 70 -81v-97q-18 2 -26 14.5t-18.5 38t-20.5 27.5q-37 -14 -41 -74q-72 0 -116 -8t-48 -16q-2 -50 -3 -69l-7 -131q0 -6 12 -6l88 8q-4 -43 -15 -58.5t-59 -15.5q-8 0 -20 -29t-12 -45q9 -21 28.5 -39.5t28 -30.5t7.5 -34t-20 -46.5
t-74.5 -83t-55.5 -94.5z" />
    <glyph glyph-name="dollar" unicode="$" horiz-adv-x="893" 
d="M344.5 258q-22.5 0 -50 14t-40.5 16q0 21 15.5 24t40 8.5t48.5 37.5q-13 17 -55 34.5t-87 17.5t-92.5 -37t-47.5 -68q0 -68 81 -111.5t162 -43.5t81 10l-9 40l4 21q0 20 -4 45q-24 -8 -46.5 -8zM704 398q0 92 -202 178q-8 -61 -15 -104t-7 -94t6 -210q84 41 133 90.5
t67 88.5t18 51zM219 880q0 -104 172 -116q19 58 19 135t-12 113q-88 -12 -133.5 -41t-45.5 -91zM418 514q0 54 -35 74.5t-116 48t-123 67.5t-42 122t42.5 122t126.5 72t119.5 52t39.5 68h66q2 -47 31.5 -65.5t92 -36.5t93.5 -41t31 -81t-33 -85t-80 -33t-91 -13t-44 -35
t50 -49t162.5 -65.5t112.5 -205.5t-145.5 -235.5t-185.5 -96.5q-12 -10 -16 -49.5t-8.5 -57t-29.5 -21.5q-6 6 -26 53t-45 55t-106 26.5t-165 51.5t-84 162q0 28 21 74t77 84t152 38l123 -14q35 0 35 14z" />
    <glyph glyph-name="ampersand" unicode="&#x26;" horiz-adv-x="1368" 
d="M12 672q0 170 53 303t145 236t210 161t248 58t241 -54t111 -148t-50 -118t-120 -24t-129 30t-84 74q46 -8 98 -8q127 0 127 49q0 28 -50.5 73.5t-187.5 45.5q-66 0 -146.5 -38.5t-153 -110t-118.5 -173.5t-46 -198t12 -150q71 80 191.5 152t285.5 94q36 4 176.5 15.5
t260.5 33.5t120 123q0 33 -7 43.5t-25 15.5t-27 12q5 66 49 66q14 0 22 -4q68 -1 68 -108t-117.5 -200.5t-468.5 -107.5q-130 -6 -246 -42.5t-190 -97.5t-78 -133q0 -46 35 -122t101 -152t163 -126t200 -50q184 0 273.5 91.5t89.5 238.5q0 72 -36 137t-100 103t-134 38
t-122 -30.5t-83 -82.5t-31 -118t43 -111.5t119 -45.5q81 8 146 149q0 -116 -54 -170.5t-123 -54.5t-121 30t-83 85t-31 117t39.5 134.5t120 125t196.5 52.5q47 0 110.5 -26t124 -76t100 -126t39.5 -172t-58 -188t-170 -149t-281 -57t-321.5 94t-239 258t-86.5 334z" />
    <glyph glyph-name="quotesingle" unicode="'" horiz-adv-x="372" 
d="M31 1273q0 47 36.5 88.5t98.5 41.5q131 0 131 -170q0 -93 -40.5 -150t-110.5 -57q-22 0 -48 6q38 24 49 36.5t31 43.5q-28 24 -73 47.5t-59.5 45t-14.5 68.5z" />
    <glyph glyph-name="comma" unicode="," horiz-adv-x="381" 
d="M22 123q0 58 39 102.5t93 44.5q144 0 143 -184q0 -76 -29 -122t-88 -89h-92q16 17 36 30t28 27t8 48q-66 24 -102 54.5t-36 88.5z" />
    <glyph glyph-name="hyphen" unicode="-" horiz-adv-x="585" 
d="M20 638q24 140 134 140q46 0 118.5 -14t97.5 -14t41 5t46.5 20t34.5 15q0 -80 -44 -120t-110 -40q2 0 -34.5 13t-117.5 13q-82 0 -166 -18z" />
    <glyph glyph-name="hyphen" unicode="&#xad;" horiz-adv-x="585" 
d="M20 638q24 140 134 140q46 0 118.5 -14t97.5 -14t41 5t46.5 20t34.5 15q0 -80 -44 -120t-110 -40q2 0 -34.5 13t-117.5 13q-82 0 -166 -18z" />
    <glyph glyph-name="period" unicode="." horiz-adv-x="354" 
d="M22 136q0 55 39 91.5t102 36.5t93 -37.5t30 -92.5t-41 -94.5t-91.5 -39.5t-91 40.5t-40.5 95.5z" />
    <glyph glyph-name="zero" unicode="0" horiz-adv-x="977" 
d="M510 72q94 0 159 68.5t96 170t31 183.5t-21 205t-67 249.5t-118 211.5t-170 85q-40 0 -79.5 -28.5t-39.5 -61.5q0 -57 78 -57q16 0 41 4v-66q-50 -51 -94 -51t-73.5 38.5t-29.5 86.5t31.5 86.5t82.5 63t107 24.5q140 0 244.5 -92t158.5 -237t54 -300t-53.5 -310
t-160.5 -254t-255 -99q-80 0 -180 68t-170 202t-70 308t47 303t97 171q-15 -81 -39 -296q0 -122 40.5 -283t129 -277t223.5 -116z" />
    <glyph glyph-name="one" unicode="1" horiz-adv-x="438" 
d="M334 1216q0 -58 -25 -178.5t-40 -231t-15 -267.5t20 -257.5t46 -164t26 -59.5q0 -11 -45 -38.5t-86 -27.5q-28 0 -54 98t-26 229t16.5 263t76.5 432q-132 0 -132 4q-46 0 -56 9t-10 56l54 13q62 0 86.5 15.5t41.5 50t39.5 53.5t82.5 26v-25z" />
    <glyph glyph-name="two" unicode="2" horiz-adv-x="866" 
d="M34 970q0 77 44.5 145t129 111.5t195.5 43.5t234 -66t123 -276q0 -129 -76 -234.5t-242 -244t-218 -188t-64 -124.5q87 27 612 59q-34 -127 -66 -190q-3 0 -77 26t-208 26t-180.5 -7t-115 -22t-115.5 -17q49 142 127.5 238t216 232t199 234t61.5 201t-33 168t-96 104
t-131 39t-121 -26t-87 -71t-34 -98t29 -92.5t67 -39.5t52.5 6.5t29 22.5t22.5 22q24 -42 24 -47t-6 -7t-6 -10q0 -120 -117 -120q-80 0 -126.5 62.5t-46.5 139.5z" />
    <glyph glyph-name="three" unicode="3" horiz-adv-x="940" 
d="M809 1222l-369 -380l12 -12q28 -10 129 -34t196 -70.5t95 -252.5q0 -82 -61.5 -194.5t-187 -195.5t-300.5 -83t-240 69t-65 129t33 96t79 36q80 0 100 -39t26 -87q-48 10 -78 11q-14 -1 -14 -19q-36 0 -45 -6t-9 -30t48.5 -72.5t152.5 -48.5t204 67.5t157 167.5t57 176
t-33.5 140t-99.5 105.5t-147 41.5t-99 -6.5t-58 -27.5t-98 -31q3 40 64 100.5t198.5 184t180.5 175.5h-342q-86 0 -123.5 -26.5t-52.5 -26.5t-44.5 43.5t-29.5 61.5t80 49t209 31q56 0 187 -21l128 -21q24 0 52.5 11t48.5 11t59 -22z" />
    <glyph glyph-name="four" unicode="4" horiz-adv-x="1116" 
d="M688 1218q-228 -120 -364 -294t-186.5 -304t-61.5 -186q86 41 155 48.5t162 10t109 19.5q0 114 53 316t133 390zM1010 565q0 32 -74 57q23 50 32.5 61t38.5 11t51.5 -29t22.5 -57q0 -96 -55 -145t-123.5 -63t-156.5 -20t-101 -18q0 -28 21.5 -134t49.5 -210
q-70 -20 -165 -65q-41 220 -45 293.5t-16 151.5q-160 0 -260 -18.5t-252 -61.5q74 520 334 731t505 272q-55 -111 -124 -357t-69 -466q0 -40 78 -40l119 5q72 0 130.5 23.5t58.5 78.5z" />
    <glyph glyph-name="five" unicode="5" horiz-adv-x="977" 
d="M608 1249q76 0 76 82q0 10 -4 43h80q34 -12 50 -28t16 -64q0 -80 -89 -105.5t-165 -25.5t-157 12.5t-116 26.5h-80v-301l15 -27q72 50 109 76t74 33.5t132 7.5q171 0 256.5 -108.5t85.5 -269.5t-78.5 -297t-214.5 -216t-290 -80t-220 55t-66 142q0 48 31 76t85 28
t70 -23.5t18 -80.5q-4 -1 -41 -3t-54 -15t-17 -41t52 -63.5t142 -35.5q184 0 318 142.5t134 342.5q0 91 -34 173.5t-100.5 133t-161.5 50.5t-125.5 -25.5t-74.5 -85.5t-96 -62v554h354q50 -21 86 -21z" />
    <glyph glyph-name="six" unicode="6" horiz-adv-x="950" 
d="M521 1214q-85 0 -173 -76t-142 -213t-54 -289q0 -328 128 -447t252 -119q77 0 137 49t92.5 126t32.5 155q0 118 -78.5 209t-195.5 91q-86 0 -116 -27.5t-45 -52t-31 -50.5q-64 30 -81 49t-17 47t37 66t98 63t129 25q185 0 276.5 -112t91.5 -284q0 -96 -41 -196.5
t-130 -169t-236 -68.5t-248 107t-145 251.5t-44 268.5t57 244.5t146.5 211.5t187 142t161.5 51t110 -20.5t74 -54t28 -79.5t-32 -71t-126 -25l-6 26q40 76 48 80q0 17 -30 54.5t-115 37.5z" />
    <glyph glyph-name="seven" unicode="7" horiz-adv-x="874" 
d="M318 358q0 -75 18 -123.5t64 -126.5q-48 -40 -80 -59t-66 -47q-94 120 -94 304t102 344t211 303t137 183h-356q-85 0 -117.5 -10t-108.5 -40v77l-2 41q0 22 20.5 42.5t181.5 35.5q245 -25 356 -39q16 0 85 13.5t140 13.5q-10 -15 -108.5 -136t-240.5 -329t-142 -447z" />
    <glyph glyph-name="eight" unicode="8" horiz-adv-x="932" 
d="M400 649q-38 0 -103 -38.5t-113.5 -105.5t-48.5 -147q0 -126 87.5 -206t203.5 -80q44 0 111 32t116 92t49 151t-58.5 162t-132 105.5t-111.5 34.5zM16 1017q0 115 79.5 174t184 73t273.5 18t229 18q-41 -66 -82.5 -101.5t-101.5 -35.5h-330q-46 0 -109 -52.5t-63 -122.5
t70 -120.5t150 -75t104 -24.5t72 29t83 75t35 83t-13 75l-13 35q22 6 62 6t60.5 -27.5t20.5 -69.5t-23.5 -72t-77.5 -71t-84 -75q17 -20 85.5 -55t113.5 -65t82 -91t37 -167t-63.5 -192.5t-167 -133t-208.5 -46.5t-194 41.5t-143 122t-54 173.5t25 148t61 87t92 68t72 50
q-50 43 -128.5 83.5t-107 81.5t-28.5 156z" />
    <glyph glyph-name="nine" unicode="9" horiz-adv-x="968" 
d="M552 706q100 0 101 -134q0 -76 -72.5 -130.5t-162.5 -54.5t-173 44.5t-138.5 141.5t-55.5 231t46.5 234t132.5 159t216 59t235 -87t157.5 -226t52.5 -300t-61.5 -315t-166.5 -275t-235 -189t-260 -68q-170 0 -170 106q0 28 39 65h77q0 -104 28 -112.5t79 -8.5
q102 0 249 84t212.5 287t65.5 338t-39 280t-123 250t-207 105q-62 0 -124 -40t-101.5 -115t-39.5 -163t34.5 -172t98 -140t144.5 -56q46 0 88.5 38t42.5 82l-6 78q24 4 36 4z" />
    <glyph glyph-name="colon" unicode=":" horiz-adv-x="372" 
d="M22 110q0 40 39 83t105 43q118 0 118 -134q0 -116 -130 -116q-72 0 -102 42t-30 82zM35 628q0 62 37 96t94 34t94 -46t37 -98q0 -12 -14 -41t-45.5 -53t-85.5 -24t-85.5 35t-31.5 97z" />
    <glyph glyph-name="semicolon" unicode=";" horiz-adv-x="372" 
d="M10 124q0 46 28 100t103 54q22 0 82.5 -31.5t60.5 -140.5t-62 -164.5t-68 -55.5h-80q4 3 7 6.5t20 19.5t53 66q-32 22 -74.5 41t-56 39t-13.5 66zM10 628q0 51 35 93.5t87 42.5t96 -34t44 -90t-37 -97t-97 -41t-94 37.5t-34 88.5z" />
    <glyph glyph-name="semicolon" unicode="&#x37e;" horiz-adv-x="372" 
d="M10 124q0 46 28 100t103 54q22 0 82.5 -31.5t60.5 -140.5t-62 -164.5t-68 -55.5h-80q4 3 7 6.5t20 19.5t53 66q-32 22 -74.5 41t-56 39t-13.5 66zM10 628q0 51 35 93.5t87 42.5t96 -34t44 -90t-37 -97t-97 -41t-94 37.5t-34 88.5z" />
    <glyph glyph-name="question" unicode="?" horiz-adv-x="932" 
d="M266 -173q0 51 34 95.5t90 44.5t96 -40.5t40 -92.5t-43 -90.5t-87 -38.5t-87 35.5t-43 86.5zM297 1106q101 0 101 -94q0 -66 -65 -99t-129 -33t-126 56.5t-62 129.5t54 145t161 118.5t271 46.5t257 -81.5t93 -220.5t-60 -226.5t-181 -175.5t-167 -133t-46 -118t50 -167
q-73 -54 -116 -54q-30 0 -48 61t-18 142t58.5 152t175 165.5t176.5 171t60 188.5t-94 184.5t-202 72.5t-190 -45.5t-131 -110.5t-49 -107t39 -82t91 -40q72 0 72 70q0 38 -16 80q16 4 41 4z" />
    <glyph glyph-name="A" unicode="A" horiz-adv-x="1386" 
d="M1054 1260q-124 0 -252 -112t-188 -200q-23 4 -46 9t-46 9q282 402 786 402q-50 -87 -50 -162v-1073q0 -40 27 -83.5t36 -63.5h-267q7 19 34.5 74.5t27.5 107.5q0 134 -79.5 279t-204 260t-248.5 167q-71 -95 -116.5 -274.5t-45.5 -317.5t22 -212.5t51.5 -120t68 -89.5
t46.5 -62q-172 -107 -214 -128q0 209 -23.5 333.5t-28 158.5t-4.5 170q0 253 131 552q-65 13 -135 13t-147 -32.5t-77 -100.5q0 -13 21.5 -34.5t32.5 -21.5q36 27 51 54q25 -33 25 -73t-40 -70.5t-91 -30.5t-85 50.5t-34 86.5q0 121 106 187.5t268 66.5q289 0 423.5 -111.5
t213 -195.5t105.5 -107v668q-18 27 -54 27z" />
    <glyph glyph-name="B" unicode="B" horiz-adv-x="1276" 
d="M463 932v-830q0 -4 29.5 -37.5t49.5 -66.5h-288q16 26 40.5 53t32 45t7.5 60v790q-22 45 -80 104q60 64 264 166q0 -2 -27.5 -110.5t-27.5 -173.5zM16 1024q0 64 61.5 152t187 152t277.5 64t268 -43t188.5 -126.5t72.5 -192.5t-35 -152.5t-55 -68.5q4 -5 51.5 -34.5
t85.5 -66.5t67 -106.5t29 -153.5t-38 -188t-123 -209.5t-230 -177t-346 -71.5q-255 0 -351 106t-96 221q0 74 37 135.5t107 61.5q27 0 53.5 -25t26.5 -57t-12 -48t-42 -40q-38 38 -50 38q-56 0 -56 -92q0 -45 40 -100.5t119 -95t185 -39.5q163 0 302.5 80.5t220.5 217.5
t81 293q0 76 -36.5 164t-102.5 109q-28 -18 -65.5 -55t-71.5 -54.5t-81 -17.5q-115 0 -115 90q0 81 41 103.5t127 31.5t130 41t44 127t-54 167.5t-142 111t-174 38.5t-186.5 -34t-174 -95t-73.5 -135q0 -27 30 -40t62 -29q-7 -43 -19.5 -58.5t-57.5 -15.5q-107 0 -107 117z
" />
    <glyph glyph-name="C" unicode="C" horiz-adv-x="1284" 
d="M874 1298q19 0 41 38.5t38.5 62t56.5 46.5t97 23t106 -36t49 -94q0 -36 -72 -72q-30 108 -53 116t-55 8t-63 -20t-52 -60t-21 -89t41 -121q-39 -25 -75 -39q-53 190 -145.5 226t-176.5 36q-138 0 -236.5 -83.5t-148 -214.5t-49.5 -279t66 -307t190 -261t284 -102
q32 0 111.5 28t143 79t63.5 114q-2 29 -24 42t-72 23q16 80 82 80q34 0 55.5 -31t21.5 -90t-45.5 -136t-146.5 -134t-243 -57t-256 58t-198.5 159t-131 230t-46.5 239t30 224t99 225.5t189 186t290 74.5q58 0 94 -15t89.5 -46t72.5 -31z" />
    <glyph glyph-name="D" unicode="D" horiz-adv-x="1331" 
d="M567 1342q-141 0 -259 -56t-183 -145t-65 -184t44 -162t110.5 -100t131.5 -33q2 44 2 159t-14 174t-22 68q0 31 59 58t110 36q-33 -59 -33 -200t17 -281q86 13 163.5 66.5t77.5 109.5t-52 57q-8 0 -26 -1t-28 -1q6 26 27.5 65.5t62.5 39.5q112 0 112 -146q0 -82 -71 -157
t-277 -129l6 -404l-20 -84q70 5 213 49.5t286 194.5t147 426q0 182 -72 314.5t-189 199t-258 66.5zM591 1405q129 0 251.5 -48.5t216 -137.5t146.5 -210t53 -261q0 -226 -108.5 -373t-257.5 -222.5t-286.5 -107.5t-204.5 -47h-131q38 37 54.5 97t20 161.5t3.5 339.5
q-117 30 -175.5 53t-111.5 94t-52 188t44 202t120.5 146t183 93.5t234.5 32.5z" />
    <glyph glyph-name="E" unicode="E" horiz-adv-x="1294" 
d="M206 1216q182 216 462 216q118 0 217.5 -49t99.5 -148q0 -68 -28 -86.5t-91 -20.5h-66q5 12 22.5 47.5t17.5 65.5t-58 70.5t-171 40.5q-112 0 -208.5 -59t-160.5 -162t-88 -226q-6 -39 -6 -93t10 -144q48 30 117 84.5t152.5 105.5t360.5 98q180 8 287 56t107 116
q0 30 -12 42.5t-33 25t-21 31.5t19 33t52 14t53 -37t20 -69q0 -154 -137 -226t-405 -129t-396 -111t-128 -180q0 -76 79 -180t196 -177t221 -73q15 0 77 11q144 26 214.5 76.5t81.5 199.5q44 -26 54.5 -44.5t10.5 -70.5t-60 -117t-163 -108t-237 -43t-256 55t-255 205.5
t-133 446.5q0 297 182 513z" />
    <glyph glyph-name="F" unicode="F" horiz-adv-x="1163" 
d="M35 690q8 0 8 53t16.5 92.5t41.5 58t33 21.5l94 31v138q0 124 -7 147q-62 -12 -82.5 -28.5t-52.5 -55.5t-70 -61v79q192 238 514 238q85 0 261.5 -41t190.5 -41t51.5 24.5t37.5 44.5t-27.5 40.5t-27.5 23.5q0 24 55 51q22 0 36.5 -25.5t14.5 -65.5t-35.5 -83t-98.5 -71.5
t-119 -28.5t-78 5.5t-118 31.5t-163 26q-66 0 -131 -12v-348q122 -11 175.5 -23.5t107.5 -21.5q65 0 117.5 25.5t52.5 66.5q0 16 -19.5 31.5t-32.5 27.5q14 18 56 18t54.5 -4t12.5 -15t-4 -31q-58 -226 -299 -226q-86 0 -221 27v-697l84 -120h-301q8 12 37 48t29 72v708
q-76 -6 -109.5 -25.5t-56.5 -128.5q-24 24 -27 24z" />
    <glyph glyph-name="G" unicode="G" horiz-adv-x="1228" 
d="M614 1382l316 -64q32 0 62 13t30 35t-19 42.5t-33 55.5q31 20 78 39q28 0 67.5 -41.5t39.5 -63.5q-1 -132 -199 -132q-55 0 -171 32.5t-179 32.5q-122 0 -226 -71.5t-165 -198.5t-61 -299t88 -334t235 -258t313 -96q88 0 166 34q-54 118 -53 262v370q-63 14 -75 14
t-21 -7t-39 -7q-50 0 -109.5 32.5t-97.5 32.5q-65 1 -65 -53q0 -44 48 -44l44 4v-65h-107q-28 25 -33.5 39t-5.5 67t53 98.5t105 45.5t115 -22t103 -32.5t90 -10.5t101 7t91 7q-1 -2 -26.5 -45.5t-25.5 -73.5v-264q0 -163 66 -355q-165 -88 -241.5 -97t-196.5 -9t-313 82.5
t-272 281t-81 350.5t79 309t221 257t304 100z" />
    <glyph glyph-name="H" unicode="H" horiz-adv-x="1384" 
d="M1247 1284v-1155q0 -8 21.5 -32.5t56.5 -86.5h-275q13 37 34 59.5t26.5 35.5t5.5 37v826q-24 0 -105 -22t-170 -22t-144 12t-114 40t-122 38q2 -22 2 -244t-4 -641q49 -82 77 -119q-30 -14 -220 -14h-56v28l68 66v457q0 457 -2 457q-98 0 -146.5 -36t-48.5 -80t13 -64
t65 -38q-22 -42 -33.5 -53.5t-54.5 -11.5t-77 44t-34 99q33 156 120.5 186t185.5 48q0 109 -12 161.5t-56 118.5h262q-53 -82 -53 -178l2 -110q54 -14 138.5 -42t137.5 -40.5t126 -12.5t141 18.5t96 48.5l4 118q0 103 -14 128.5t-52 81.5h276q-10 -16 -30.5 -41t-27.5 -36
t-7 -29z" />
    <glyph glyph-name="I" unicode="I" horiz-adv-x="399" 
d="M22 1380q76 12 121 12t141 -12q-2 -12 -33.5 -49t-31.5 -71v-1118q24 -16 93 -126q-106 -12 -222 -12h-68q14 24 42 66t28 53v1145q0 20 -70 112z" />
    <glyph glyph-name="J" unicode="J" horiz-adv-x="428" 
d="M258 1278v-897q0 -81 12 -111t48 -70q-48 -26 -103 -112t-129.5 -212t-195.5 -126q-40 2 -72.5 30t-32.5 53t18.5 50t42.5 25t35 -13t21 -41t14 -38q204 57 204 737v163q0 298 -8 506q0 38 -90 156q20 2 60 2l164 -6q20 0 72 4q-20 -26 -40 -51t-20 -49z" />
    <glyph glyph-name="K" unicode="K" horiz-adv-x="1276" 
d="M874 1442q48 0 92 -50t44 -142t-40.5 -153t-97 -100t-119.5 -67t-120 -54q111 -88 155 -214t79 -328t82.5 -312t166.5 -166q0 41 8 60.5t30 19.5t39 -8t17 -46t-15 -55t-67 -17q-156 0 -248 138t-147 340t-104 375t-107 173q-39 -6 -135.5 -59t-152.5 -111v-396
q0 -92 12.5 -136t46.5 -84t45 -56h-328q12 16 34 33t34 36.5t22 65.5v1024q0 126 -78 223h275q-11 -18 -33 -46.5t-29 -52t-7 -221.5t4 -276q73 62 263.5 157t279.5 154.5t89 139.5q0 54 -28.5 70.5t-102.5 35.5q3 8 9 26t20 36t39 30.5t73 12.5z" />
    <glyph glyph-name="L" unicode="L" horiz-adv-x="1126" 
d="M291 1235v-891q-23 -147 -61 -178q90 12 154 12t101 -8t120 -30t155 -34q66 0 118 40t81.5 93.5t29.5 92.5q0 88 -54.5 154t-138.5 73q-83 0 -113 -30.5t-30 -65.5q1 -61 101 -61q-6 -48 -25.5 -66t-79.5 -18t-93.5 59t-33.5 98t22 80t75 74t131 33t147 -38t115 -113
t46 -184t-52 -186t-136 -114t-148 -37t-98 7t-151.5 37t-211.5 30q-93 0 -149 -60q-16 0 -110 94q144 144 144 234v886q0 26 -6 41t-36 52t-55 71q78 1 154.5 2.5t154.5 1.5q-44 -52 -55.5 -81.5t-11.5 -69.5z" />
    <glyph glyph-name="M" unicode="M" horiz-adv-x="1452" 
d="M632 410q38 0 61.5 35.5t23.5 84.5t-17 79t-76 89q-45 -36 -62 -63t-16 -85t24.5 -99t61.5 -41zM420 1333q-70 -55 -70 -91q0 -16 308 -333l148 147q147 148 159 164t12 25q1 23 -65 92h300q-55 -51 -62 -62t-7 -23t17 -137t51 -425.5t51.5 -413t44.5 -174.5t77 -94
q-24 -2 -90 -2t-116.5 1t-73.5 1q26 38 32.5 52t10.5 75q-52 363 -91.5 632.5t-55.5 381.5q-40 -32 -156.5 -156.5t-116.5 -136.5t23.5 -48t60.5 -99t37 -151q0 -89 -47.5 -164.5t-149.5 -75.5q-54 0 -95.5 35t-65 91t-23.5 94t22.5 111t57.5 133q-177 197 -232 310
q-12 -108 -33 -299.5l-42 -383t-33 -299.5q0 -48 14.5 -69t24.5 -35q-10 -2 -53 -2t-105.5 1t-77.5 1q32 22 58.5 88.5t125.5 1123.5q0 51 -28 72.5t-43 34.5q54 3 148.5 4.5t148.5 3.5z" />
    <glyph glyph-name="N" unicode="N" horiz-adv-x="1192" 
d="M853 1256q5 0 5 4t-92 96h248q-10 -16 -38 -49t-28 -68q59 -756 98 -1127q10 -42 45 -68t39 -34h-236q38 76 43 97t5 105t-16 175q-42 -68 -80 -96.5t-95 -30.5t-100 36t-43 90t24 85t55 33t55 -25q-4 -12 -17 -41t-13 -41q0 -29 62 -37q39 0 67.5 45t28.5 89
q-6 80 -69 134t-196.5 128t-216.5 134t-136 152l-62 -900q3 -46 36.5 -88.5t41.5 -55.5h-262q16 6 46 38t50 106q18 242 43.5 572t30.5 525q0 36 -28 71.5t-36 45.5h248q-10 -14 -33.5 -35.5t-35 -43t-11.5 -65.5q11 -70 76.5 -124.5t206.5 -133t214 -125.5t117 -115
l-46 531q0 11 5 11z" />
    <glyph glyph-name="O" unicode="O" horiz-adv-x="1210" 
d="M487 1034q-55 0 -93 49t-38 120t45 118.5t107 69.5t108 22t128 -25.5t173.5 -96.5t156 -212t64.5 -358q0 -280 -111 -437.5t-219 -218.5t-240 -61t-260 78t-210 232.5t-82 367.5q0 90 33 222t102 242t171 136q-174 -218 -174 -480q0 -261 106 -413.5t197 -210.5t194 -58
q57 0 144 38.5t160 153t73 296.5t-61 345t-164 265t-219 102t-117 -102q0 -15 24.5 -40t40.5 -25l66 25q0 -76 -25 -110t-80 -34z" />
    <glyph glyph-name="P" unicode="P" horiz-adv-x="1210" 
d="M648 1392q193 0 329.5 -126t136.5 -382q0 -172 -84 -330t-210 -253t-240 -95q-68 0 -125 48t-57 123q0 94 94 94q18 0 34 -4q-7 -24 -22.5 -44.5t-15.5 -48.5t39 -59t97 -31q122 0 227 159t105 427q0 109 -37 218.5t-112 181.5t-162 72t-156 -42t-113 -104t-44 -117
v-1107q0 -59 -33 -120.5t-87.5 -100.5t-112.5 -39t-93 52v64h104q50 0 64 16t14 64v1264h-42q-77 0 -121.5 14t-44.5 54t19.5 57t64.5 17q14 -62 17 -70.5t23 -8.5l46 2q54 0 159.5 52.5t173 77.5t165.5 25z" />
    <glyph glyph-name="Q" unicode="Q" horiz-adv-x="1239" 
d="M522 202q-70 0 -78 -50q0 -78 111 -78q87 0 141 40q-32 40 -81 64t-93 24zM563 1346q-132 0 -217.5 -76t-125.5 -194t-40 -237t25.5 -225t57 -181t66.5 -143t36 -75q89 43 114 53t47 10q95 0 164.5 -29t95.5 -49q37 0 91.5 82.5t93.5 201t39 235.5t-42 236t-110 206.5
t-146.5 136t-148.5 48.5zM22 770q0 132 66 287t197.5 254.5t319.5 99.5t312.5 -95.5t181.5 -246.5t55 -309t-34 -265.5t-75 -172t-102.5 -126.5t-76.5 -90q26 -22 62.5 -83.5t75.5 -106t112 -80.5q16 0 29.5 14t13.5 42t-37 54q86 41 112 3t26 -78t-43 -73.5t-117 -33.5
q-106 8 -198 85t-154 167l-189 -12q-209 0 -209 170q-32 -21 -32 -41q-91 46 -158.5 149.5t-102.5 229.5t-35 258z" />
    <glyph glyph-name="R" unicode="R" horiz-adv-x="1276" 
d="M618 448q58 0 88 27q-55 51 -92 51q-38 0 -53 -36q-1 -42 57 -42zM416 1110v-989q0 -29 34 -61t46 -44h-291q65 66 65 105v870q0 24 -21 50.5t-34 44.5q58 40 116.5 80.5t116.5 80.5q-18 -58 -25 -78.5t-7 -58.5zM60 1070q0 -60 65 -60q33 0 57 20q0 -58 -15 -81t-53 -23
t-72 31t-34 95t70 148t208 141t314 57t305 -59t201 -170t72 -237q0 -213 -100.5 -318.5t-227.5 -189.5q54 -82 96 -190t82 -207t89 -150t128 -51q20 0 35.5 23t15.5 63q2 -2 34 -8.5t31 -50.5t-37 -66.5t-79 -22.5q-152 0 -242 69t-132 166t-73.5 231t-49.5 176q-4 0 -41 -5
t-81 -5q-146 0 -145 94q2 45 45.5 69.5t84.5 24.5q58 0 114 -34t82 -34t82.5 50t100.5 134t44 176t-43 197t-149 182.5t-281 77.5q-45 0 -129 -17.5t-169.5 -51.5t-144 -84t-58.5 -110z" />
    <glyph glyph-name="S" unicode="S" horiz-adv-x="1155" 
d="M563 1382q-80 0 -152.5 -36t-72.5 -102t134 -136t274 -139t242 -177t102 -280t-113 -342t-455 -170q-205 0 -358.5 98t-153.5 297q0 76 48 149t138 119.5t190 46.5t176 -27t123.5 -81t47.5 -141t-70.5 -136t-154.5 -49t-146.5 37t-62.5 85t25.5 68t73.5 34
q24 -134 100 -134q58 0 92 41t34 81q0 79 -74 125.5t-161 46.5t-157 -35t-114 -99.5t-44 -157.5t71 -167.5t179 -111t217 -36.5t213 52.5t166.5 143.5t62.5 215t-98.5 217t-289 191t-276 161.5t-85.5 164.5q0 44 38 97t115 91t183 38t201 -39t95 -121q0 -32 -35 -49t-71 -17
q-12 0 -12 16l6 62q0 106 -191 106z" />
    <glyph glyph-name="T" unicode="T" horiz-adv-x="1136" 
d="M1024 1499q14 0 35 -6q65 -17 65 -69q-3 -79 -109.5 -136.5t-260.5 -57.5q-50 0 -103 6v-1142q0 -27 27.5 -57.5t37.5 -46.5h-288q11 26 42.5 60t31.5 71q0 125 -1 346l-2 442t-1 346q-16 3 -77 19t-133 16t-137 -19.5t-65 -72.5q0 -37 92 -37q-2 -33 -28 -57.5
t-58 -24.5t-52 32.5t-20 77.5t48 94t144 81t210 32t180 -11t172 -33.5t150 -22.5t76 16.5t32 49.5t-47 51q0 53 39 53z" />
    <glyph glyph-name="U" unicode="U" horiz-adv-x="1210" 
d="M154 1244q0 -20 -14 -36t-40 -16t-44 23t-18 71t51 93t122 45q24 0 97.5 -24t98.5 -24t67 13.5t110 13.5q-9 -28 -93.5 -122.5t-153.5 -184.5t-124 -214t-55 -241q0 -221 119.5 -377t302.5 -156q50 0 123.5 37.5t131.5 86t60 73.5v711q0 259 -21.5 300.5t-56.5 88.5
q79 11 121 11t81 -1.5t75 -1.5q-29 -29 -47.5 -54t-18.5 -145v-870q0 -96 37 -166t119 -70q-17 -51 -52.5 -77.5t-76.5 -26.5t-67 21t-61 76t-38 59q-62 -42 -103.5 -70.5t-106 -64t-186.5 -35.5q-121 0 -234 75.5t-180 212t-67 288.5t43 258t90.5 169t131 159t104.5 142
q-33 -4 -63 -4t-64.5 10t-78 28t-56.5 18t-26 -16t-13 -38q6 -12 17 -12t48 12q9 -28 9 -48z" />
    <glyph glyph-name="V" unicode="V" horiz-adv-x="1163" 
d="M606 1356q0 56 33 97.5t85 64t92 22.5t100 -22t117 -96t57 -212q-2 -80 -66 -214.5t-209 -386t-212 -372.5t-115 -249q-96 170 -158 364t-125 483t-89 394t-75 180h262q-38 -44 -51.5 -64.5t-13.5 -54.5q70 -367 151 -647.5t133 -339.5q50 90 192 321.5t203.5 363.5
t61.5 216q0 164 -64.5 217t-117.5 53t-89 -26t-36 -73t40 -46q29 1 60 21q24 -28 24 -58t-25 -49t-69 -19t-70 38t-26 94z" />
    <glyph glyph-name="W" unicode="W" horiz-adv-x="1536" 
d="M758 1302q-72 0 -72 -106q0 -46 21 -121t43 -109q64 98 63 199q1 137 -55 137zM578 1152q0 66 22 118t61 85t87 33q86 0 122.5 -56t36.5 -130t-14.5 -125.5t-42.5 -120t-37 -106.5q67 -146 145.5 -319t106.5 -234q52 116 170.5 378.5t118.5 458.5q0 95 -36 149t-89 54
t-78 -27.5t-35 -37.5q-5 11 -23 33.5t-18 35.5q0 56 47.5 85.5t103.5 29.5t112 -28t98 -94t42 -172t-48 -254t-112 -288t-163.5 -340.5t-130.5 -271.5q-34 72 -94 199l-120 254t-94 199q-36 -74 -98.5 -203.5t-126 -259t-98.5 -203.5q-18 72 -126.5 358t-174.5 480t-82 333
q0 111 45 195t139 84q36 0 51 -11t15 -49q-82 0 -113 -52t-31 -110t66 -258t147 -393t121 -233q82 127 218 450q0 19 -45 158.5t-45 205.5z" />
    <glyph glyph-name="X" unicode="X" horiz-adv-x="1144" 
d="M874 1442q90 0 131 -57t41 -133t-60 -155t-149.5 -158t-157 -139t-67.5 -81q0 -6 136 -260.5t378 -436.5h-317q29 24 29 52t-25 49q-181 239 -327 493q-48 -36 -117 -113t-123 -178.5t-54 -177.5t24 -109.5t30 -43.5l-236 4q62 114 83 179t37 112t66 131t94 131.5
t100 104.5t58 63q-163 302 -229 545q-14 28 -41.5 56t-37.5 42h276q-6 -25 -22.5 -56t-16.5 -52t79 -224.5t118 -203.5q32 31 139 113.5t162 145.5t55 118t-28 80t-66 25t-58 -9t-38 -45q-19 57 -19 100q10 46 53.5 67t99.5 21z" />
    <glyph glyph-name="Y" unicode="Y" horiz-adv-x="1108" 
d="M74 1100q-18 0 -39 30t-21 48q0 87 74 117t182 30t152 -2q-105 -222 -124.5 -323.5t-19.5 -216.5t34 -222t108 -172t186 -65t190.5 90.5t116 233t37.5 256.5t-23.5 203.5t-88.5 242.5q104 28 204 46v-44q0 -331 -48 -658.5t-85 -471.5t-89 -255t-134 -193.5t-184 -82.5
q-56 0 -107 42.5t-51 114.5q0 32 13 32t60 -28t73 -28q113 0 224.5 163.5t111.5 309.5q-34 -10 -86.5 -45.5t-98.5 -54.5t-142 -19t-180 73.5t-127.5 189t-43.5 235.5t28 212t74.5 190t54.5 134q-67 10 -107 10l-65 -4q-3 0 -15 14.5t-20 14.5q-18 1 -30 -69q37 -16 65 -40
q-30 -30 -35.5 -34t-23.5 -4z" />
    <glyph glyph-name="Z" unicode="Z" horiz-adv-x="1181" 
d="M303 1204q97 -8 97 -121q0 -51 -50 -89t-116 -38t-115 64t-49 118t41 120t116 112.5t173 46.5q86 -9 179 -40.5t130 -40.5t81 -9q118 0 252 84q0 -128 -70.5 -259.5t-166.5 -229.5q-69 -62 -216 -176t-292.5 -240.5t-161.5 -298.5q30 0 70.5 20.5t73 31.5t115.5 11
t158.5 -30t173.5 -82t145 -52t96 35t49 87t-32 87t-85 35q-11 0 -51 -21.5t-68 -31.5q-12 41 -12 65t4 41q30 78 140 78q82 0 140 -57.5t58 -139.5t-54 -144.5t-132 -96t-132 -33.5t-112 17t-192.5 65t-193.5 48t-92 -16t-65.5 -48t-56.5 -49t-70 -21q-8 8 -8 42
q0 100 104 308q70 137 166 232t251.5 214.5t246 207.5t156.5 214q-74 -6 -164 -6t-165 17t-162 46t-128 29q-76 -10 -130.5 -55t-54.5 -104t26 -86t58 -27t52 17t20 47t-48 59q13 43 73 43z" />
    <glyph glyph-name="bracketleft" unicode="[" horiz-adv-x="446" 
d="M133 610q0 -152 39 -309t94.5 -287t109.5 -227t74 -133h-52q-124 160 -212.5 321.5t-131 285t-42.5 187.5v264q0 31 26.5 145.5t95 275.5t184.5 321q0 -32 -26 -106t-67 -198t-66.5 -256t-25.5 -284z" />
    <glyph glyph-name="bracketright" unicode="]" horiz-adv-x="501" 
d="M440 561q0 -62 -66.5 -286.5t-160 -417.5t-183.5 -217q16 38 80.5 169t130.5 300.5t66 437.5q0 185 -32.5 330t-66.5 223.5t-93.5 198t-69.5 169.5q18 -10 83.5 -92.5t137.5 -208.5t123 -285.5t51 -320.5z" />
    <glyph glyph-name="a" unicode="a" 
d="M424 596q-118 0 -190 -60t-72 -178q0 -62 39 -116t99 -85.5t102 -31.5t106 24.5t115 77.5t51 127t-34 128t-91.5 84t-124.5 30zM171 674q-55 0 -98 48.5t-43 95.5t38 89.5t102 69.5t137 27q163 0 266 -93t157 -236t74 -260.5t54 -369.5h-146q-24 20 -36 61.5t-14 45.5
q-42 -65 -118 -105.5t-172 -40.5q-146 0 -256 88.5t-110 251.5q0 64 49 144.5t148 138t235 57.5q1 0 21 -14t58 -14q37 0 79 4q-17 58 -68.5 126t-124.5 115t-139 47t-110 -33t-44 -85q0 -24 39 -64q56 30 56 47l-5 31h56q26 -42 26 -64q0 -14 -26 -14l2 -49
q0 -26 -16 -35.5t-71 -9.5z" />
    <glyph glyph-name="b" unicode="b" horiz-adv-x="968" 
d="M102 209v901q0 45 -17 53.5t-75 14.5q26 29 79.5 88.5t109.5 129.5q2 -20 2 -314t-4 -314q176 176 356 176q166 -10 243.5 -115t77.5 -279t-69 -294t-171 -188t-188 -68q-120 3 -243 121q0 -33 -18 -57t-74 -72q-69 80 -99 122q20 8 55 22.5t35 72.5zM457 53
q61 0 123 38.5t125 139t63 294.5t-91 266.5t-174 72.5t-150.5 -41t-108.5 -95t-41 -87v-456q31 -30 112 -81t142 -51z" />
    <glyph glyph-name="c" unicode="c" 
d="M16 488q0 140 73 258t187 187t205 69t158.5 -31.5t110 -86t42.5 -136.5t-59 -131.5t-141 -49.5t-125 39.5t-43 87.5q0 74 14 88t64 35q12 -43 19 -69t19.5 -44t55.5 -18q44 0 74 30t30 67t-21 75t-64 64t-113 26t-143 -37t-125 -96t-81.5 -129t-29.5 -152t52.5 -183
t143 -165.5t197.5 -64.5q64 0 111 22t119 66.5t112 54.5q-49 -103 -127.5 -161.5t-154.5 -79.5t-125 -20t-145.5 30t-193 138t-96.5 317z" />
    <glyph glyph-name="d" unicode="d" horiz-adv-x="987" 
d="M439 907q-83 0 -149 -48t-101 -129t-35 -177q0 -170 65 -268t140 -133.5t115 -35.5t94 31.5t90 78t36 90.5v380q-31 72 -52.5 111t-70.5 69.5t-132 30.5zM826 512q0 -253 33 -308.5t53 -71.5t20 -31t-31 -45t-75 -30q-10 0 -39 25t-66 93q-28 -9 -76.5 -52.5t-96.5 -67.5
t-138 -24t-181 58.5t-149 172t-58 253.5t53 248.5t152 174t229 65.5q46 0 125 -31t113 -34v291q-32 18 -38 18t-17.5 -3t-24.5 -3q22 29 87 101.5t125 122.5v-922z" />
    <glyph glyph-name="e" unicode="e" horiz-adv-x="932" 
d="M414 907q-64 0 -133 -48.5t-114.5 -130t-45.5 -157.5t28.5 -160.5t96.5 -148.5q152 152 244 333t92 193q0 50 -52 84.5t-116 34.5zM548 117q82 0 137 22.5t108 61.5t77 49q-26 -105 -136 -178.5t-271 -73.5q-102 0 -163.5 33t-71.5 33t-39 -36t-29 -64t7 -39t20 -18
t19.5 -14t6.5 -26v-53q-131 3 -131 106q0 43 39 116.5t39 81.5t-28 39.5t-73 98.5t-45 236t121 324.5t342 155.5q136 0 301 -92q-443 -660 -460 -686q48 -46 98 -61.5t132 -15.5z" />
    <glyph glyph-name="f" unicode="f" horiz-adv-x="592" 
d="M412 1374q53 0 91.5 -35t38.5 -80t-39 -76.5t-65 -31.5t-53 28.5t-27 76.5q0 14 14 14l78 -14q0 54 -14 66.5t-51 12.5q-92 0 -92 -178l2 -73q0 -112 13 -148.5t38 -36.5l37 4q36 0 55 -43q-44 -16 -86 -16l-32 2q-12 0 -12 -29v-811q0 -111 -42 -212t-110 -165.5
t-140 -70.5l-18 72q0 12 18 46q97 64 134.5 107.5t37.5 154.5v883q-52 29 -96 29l-30 -2q-32 0 -66 38q41 12 84 13l41 -2q29 1 42 16t14 110t12 166t62 128t161 57z" />
    <glyph glyph-name="g" unicode="g" horiz-adv-x="1013" 
d="M475 561v-172q124 20 184 103.5t60 170.5t-29.5 130t-35.5 43t-40 -8.5t-59 -8.5q-69 -1 -113 57q26 10 52 15t55 21q-100 18 -107 18q-70 0 -137 -34t-109 -95t-42 -123t21 -121t58 -98t81 -39q14 0 38 10l-14 51q0 14 37 47t100 33zM706 1034q0 30 -20 45t-62 24
t-48 11q16 50 28 64t62 14q106 0 106 -146q0 -44 -13 -80t-13 -52t41 -63.5t65 -90t24 -106.5q0 -115 -63 -175.5t-156 -90.5t-182 -61t-105 -81h109q475 0 475 -291q0 -84 -67 -166.5t-189 -135t-280 -52.5q-85 0 -173.5 25t-149.5 78.5t-61 133.5q0 43 42 80t87 37
t59 -6.5t31 -24.5t19 -20v-78q-7 4 -35.5 21.5t-50.5 17.5t-47 -18.5t-25 -46.5q0 -54 83 -100t194 -46q166 0 287 76t121 216t-88.5 194t-193.5 54t-147 -17t-88 -47t-65 -30q-33 0 -63 40q30 29 78.5 69.5t65 64.5t20.5 64q-138 62 -223 138t-85 190q0 80 55 153
t151.5 117.5t213.5 44.5h211q21 -25 37 -25q28 0 28 78z" />
    <glyph glyph-name="h" unicode="h" horiz-adv-x="958" 
d="M570 973q112 0 214.5 -83.5t102.5 -309.5q0 -133 -71.5 -294.5t-73.5 -169.5q14 -4 13.5 -10t2 -6t133.5 31q0 -77 8 -143q-175 14 -219 14t-55.5 -1t-16.5 -1q104 197 132 308.5t28 189.5q0 154 -69.5 255t-194.5 101q-64 0 -119 -32t-87 -79t-32 -85v-527q0 -35 24 -69
t44 -50h-252q33 33 43 50.5t10 41.5v1068q-25 2 -57 2t-48 -2q38 59 109 133.5t115 88.5v-564q46 10 113 57t103 66.5t100 19.5z" />
    <glyph glyph-name="i" unicode="i" horiz-adv-x="325" 
d="M188 260q0 -152 68 -262h-226q4 13 23 58.5t19 57.5v449q0 182 -68 250q38 39 91 72t93 47v-672zM58 1170q0 26 19 45.5t46 19.5q65 1 65 -65q0 -32 -19 -50t-46 -18q-65 0 -65 68z" />
    <glyph glyph-name="j" unicode="j" horiz-adv-x="358" 
d="M-10 -282q4 0 59 -30q78 25 78 144v936q0 26 -37.5 53.5t-61.5 34.5q78 45 206 137v-977q16 -67 52 -67q-34 -30 -87 -122.5t-90 -139.5t-81 -49t-51 13.5t-7 51.5q10 1 13 8t7 7zM100 1210q0 22 28 46t54 24t45 -26t19 -52t-20 -46t-49 -20t-53 26t-24 48z" />
    <glyph glyph-name="k" unicode="k" 
d="M584 1096q130 0 130 -163q0 -71 -40.5 -132.5t-92 -102t-127.5 -89.5t-94 -66q84 -64 133 -79.5t81 -29.5t58 -79t95 -273q35 8 59 8t23 -8q37 0 44 -5t7 -31t-26 -47t-52 -21q-66 0 -104 44t-95 149t-116 180t-158 127h-80v-345q0 -52 68 -129h-252q11 18 39 50t28 54
v1051q-36 19 -45 19t-22.5 -2t-26.5 -2q28 51 87 113.5t109 94.5v-788q68 0 167.5 48t171 119.5t71.5 135.5q0 26 -18 45.5t-28 19.5t-74 -38q-29 50 -29 62t6 12h7q4 0 4 4q0 94 92 94z" />
    <glyph glyph-name="l" unicode="l" horiz-adv-x="381" 
d="M230 106q0 -8 38 -50t41 -46q-67 -12 -144 -12t-93 4q7 24 23.5 53.5t23 55t6.5 87.5v910q0 29 -24.5 47.5t-70.5 18.5q30 54 83 111.5t117 84.5v-1264z" />
    <glyph glyph-name="m" unicode="m" horiz-adv-x="1331" 
d="M620 443q0 179 -42 279.5t-162 100.5t-155 -88t-35 -251t8.5 -263.5t22 -141.5t36.5 -62t25 -23h-250q20 40 35.5 59t15.5 47v539q0 62 -20.5 96.5t-53.5 66.5t-33 44t25 41t49 29q35 0 79.5 -60t60.5 -60q10 0 33 29t68 73t161 44q64 0 139 -53t83 -53t75.5 59t162.5 59
q60 0 134 -41t128 -121.5t54 -171.5t-29 -170.5t-65 -145.5t-116 -204q38 -10 66 -10l78 10v-118q-84 14 -106 14t-57 -1t-87 -1q14 59 61 162.5t72 188.5t25 179q0 192 -74 259t-150 67q-40 0 -92.5 -42t-52.5 -77q41 -148 41 -184q-16 -118 -68.5 -307.5t-144.5 -225.5
q9 52 32 151t23 278z" />
    <glyph glyph-name="n" unicode="n" horiz-adv-x="950" 
d="M516 962q122 0 202.5 -52t122 -145.5t41.5 -209.5t-27.5 -191.5t-66 -135.5t-38.5 -72t32 -40t54 -54q-110 -46 -160 -64t-113 -22q66 118 133.5 240t67.5 284q0 86 -33 168t-97 135t-142 53t-135 -40t-89 -107t-32 -144v-423q0 -69 19 -87.5t59 -44.5q-62 -18 -155 -18
t-137 12q39 47 58.5 77.5t19.5 72.5v450q0 143 -24 185.5t-39 59.5t-15 25t30 42t50 34t43 -21t57 -61t46 -51q146 145 268 145z" />
    <glyph glyph-name="o" unicode="o" horiz-adv-x="1042" 
d="M428 882q-38 0 -112 -35t-132.5 -101t-58.5 -163t65 -211t163.5 -189t188.5 -75t167 50.5t121 125t44 140.5t-54.5 177.5t-156 196t-235.5 84.5zM8 488q0 219 159 360t339 141q128 0 237 -65.5t172.5 -177.5t63.5 -245t-68.5 -248t-183.5 -183t-249 -68t-242 68.5
t-168 184t-60 233.5z" />
    <glyph glyph-name="p" unicode="p" horiz-adv-x="968" 
d="M527 897q-58 0 -119.5 -38.5t-106.5 -101.5t-45 -131v-432q26 14 84 27q14 -79 30 -111t97 -32t155 74t118 181t45 204t-36 182t-100.5 131.5t-121.5 46.5zM102 978q24 0 47.5 -22t57.5 -64t49 -56q36 32 105.5 94.5t201.5 62.5q190 0 270.5 -127.5t80.5 -285.5
t-57 -284.5t-165 -205t-248 -78.5q-52 0 -107 24.5t-81 35.5v-188q0 -60 22 -87t38 -45q-130 -98 -204 -116l-4 1134q0 47 -50.5 80.5t-57.5 38.5q57 70 67.5 79.5t34.5 9.5z" />
    <glyph glyph-name="q" unicode="q" horiz-adv-x="977" 
d="M421 926q-71 0 -131.5 -53t-94 -135t-33.5 -192t51 -210t123 -151.5t122 -51.5t85 18.5t63 46.5l56 56v432q0 50 -30.5 106t-85 95t-125.5 39zM662 -352q26 113 26 169t-20 277q-32 -8 -76 -35t-83 -41t-124 -14t-174 66t-142 178t-53 242q0 56 20 139.5t67 166t131 139
t181 56.5t156 -26.5t131 -94.5q18 21 60.5 71t83.5 50q6 0 36 -37.5t30 -60.5t-24 -38.5t-52.5 -43t-28.5 -164.5v-723q0 -24 17.5 -83t47.5 -89q-50 -32 -99 -65t-99 -66z" />
    <glyph glyph-name="r" unicode="r" horiz-adv-x="772" 
d="M8 872q0 16 36 55t54 39q38 0 69 -32t95 -111q20 16 75 64.5t99 70t113 21.5t124.5 -39.5t55.5 -101.5t-32.5 -98t-84.5 -36t-92 40q27 22 50.5 38.5t26.5 21t3 26.5t-28 40.5t-72 18.5t-98 -32t-93 -89.5t-39 -128.5v-395q0 -84 17.5 -129t48.5 -95q-36 -16 -115 -16
t-135 16q70 72 70 203l-2 74q0 228 -21 345.5t-46 153.5t-52 48t-27 28z" />
    <glyph glyph-name="s" unicode="s" horiz-adv-x="866" 
d="M452 882q39 -65 77 -65q13 0 31 20.5t18 46.5t-44 45t-117 19t-166 -44t-93 -122t60 -98t235 -55t260 -93t85 -190q0 -88 -64 -169t-178 -131t-258 -50t-214 65t-70 169q0 56 34 100.5t87 69t119 24.5t123 -29t57 -92q0 -40 -12 -62.5t-54 -50.5h-104l39 78
q0 28 -27.5 47t-81.5 19t-97 -37t-43 -98t72.5 -95t164.5 -34t182.5 24.5t155.5 81t65 147.5t-75.5 125t-234 62.5t-237.5 73t-79 140.5q0 172 143 216.5t235 44.5q248 1 248 -155q0 -28 -25.5 -56t-66 -46t-93.5 -18t-83.5 32t-30.5 66t7.5 41t49.5 33z" />
    <glyph glyph-name="t" unicode="t" horiz-adv-x="465" 
d="M64 914q-10 0 -50 -34v68q70 2 94.5 16t24.5 47t-5.5 46.5t-16.5 31t-17 29.5q19 20 52.5 56l67 72t52.5 56q6 -24 6 -63l-2 -101l2 -46v-42l-2 -54q0 -24 18 -30t95 -6v-52h-105v-672q0 -74 92 -144q-64 -92 -104 -92q-20 0 -52 38t-56.5 114.5t-24.5 187.5v540
q-59 34 -69 34z" />
    <glyph glyph-name="u" unicode="u" horiz-adv-x="921" 
d="M116 484q0 -60 24 -145t89 -153.5t177 -68.5q60 0 111 29.5t81 80.5t30 111v502q0 24 -8 38t-28 38t-29 40h250q-40 -40 -52.5 -70t-12.5 -67v-47l-4 -278q0 -48 4 -180q0 -24 42 -93.5t88 -95.5q-23 -49 -41.5 -75t-46.5 -26t-50 20t-60 60t-52 40t-41 -31.5t-50 -52.5
t-73 -41.5t-115 -20.5t-145.5 40t-142 129.5t-61.5 201.5t54 245.5t116 233.5q-42 12 -64 12l-80 -8v118q74 -11 159 -12.5t116 -5.5q-14 -38 -60.5 -118t-85.5 -155t-39 -195z" />
    <glyph glyph-name="v" unicode="v" horiz-adv-x="893" 
d="M563 977q0 55 23.5 73.5t88.5 18.5t109 -63.5t44 -152.5t-88 -274t-195 -365t-139 -210q-141 185 -211.5 408.5t-110 347.5t-74.5 176h250q-9 -28 -30 -57t-21 -73t34.5 -175t87.5 -259t107 -186q36 35 105.5 168t124.5 273.5t55 197.5q0 139 -78 139q-11 0 -67 -67
q-24 43 -24 61t9 19z" />
    <glyph glyph-name="w" unicode="w" horiz-adv-x="1239" 
d="M870 1022q0 40 39 70t91 30q94 0 123.5 -62t31.5 -154t-19.5 -168.5t-60.5 -162t-128 -260.5t-153 -305q-37 89 -107 282t-99 250q-188 -427 -246 -552q-64 218 -130.5 457t-99 349t-94.5 172h236q-7 -10 -27 -33.5t-20 -48.5q136 -527 186 -583q32 74 92 207t145 340
q22 -64 61.5 -176l79 -224t61.5 -176q10 6 121.5 214.5t111.5 389.5q0 50 -19 91t-57 41q-26 0 -49 -56q-70 14 -70 68z" />
    <glyph glyph-name="x" unicode="x" horiz-adv-x="866" 
d="M633 1054q63 0 97 -47t34 -109t-34 -125t-82 -119t-112 -118t-75 -75q38 -49 104.5 -136t133.5 -174t104 -137q-39 -18 -89 -18t-98 2t-76 2q6 14 9 18.5t3 5t-2 0.5t-3 36q0 36 -36.5 103t-83.5 127t-67 74q-76 -76 -126 -153t-50 -131q0 -20 8 -32t38 -38
q-32 -7 -126 -72.5t-104 -68.5q55 266 124 351.5t122.5 133.5t75.5 76q-21 31 -256 479h248q-48 -73 -48 -77q0 -5 40 -107.5t120 -184.5q58 46 145 140.5t87 175.5q0 22 -20.5 50t-45.5 28l-22 -4q-26 0 -58 4q10 72 34 96t87 24z" />
    <glyph glyph-name="y" unicode="y" 
d="M747 964q17 0 97 -16q-31 -42 -58.5 -76t-27.5 -38t9 -23.5t10 -91.5q1 -73 1 -237t-2 -332t-53.5 -295t-146 -182.5t-232.5 -55.5q-55 0 -100.5 27.5t-45.5 77.5q0 22 36 44t90 34q8 -58 16 -80.5t25 -30t57 -7.5q86 0 129 46t94 149v235q-3 7 -6 14.5t-6 13.5
q-32 -22 -70.5 -53t-76.5 -54t-135 -23t-172.5 48t-119 140t-43.5 197t18.5 164t54 135.5t44.5 114.5q-12 8 -35 18.5t-63 34.5q102 48 231 78q-4 -56 -46.5 -144t-64.5 -154t-22 -170t34.5 -183t97.5 -128t136 -49t127 35.5t85.5 94t31.5 120.5v474q0 35 -21.5 61.5
t-41.5 50.5q148 16 165 16z" />
    <glyph glyph-name="z" unicode="z" horiz-adv-x="884" 
d="M758 182q0 18 -21 42t-37 24t-30.5 -20.5t-83.5 -33.5v105q39 39 53.5 47t50.5 8q119 0 119 -133q0 -104 -71.5 -157.5t-203.5 -53.5q-62 0 -169 26t-140 26t-53 -10t-72.5 -43t-91.5 -42q166 414 223 485.5t160 186.5t191 239h-154q-94 -8 -140 -25t-111 -51t-117 -46
q10 32 43.5 111t68.5 131q78 -52 114 -52l52 12h471q-501 -542 -573 -788l388 -80q34 6 84 27t50 65z" />
    <glyph glyph-name="glyph79" horiz-adv-x="1024" 
 />
  </font>
</defs>
</svg>
